<?xml version="1.0" standalone="no"?><!DOCTYPE svg PUBLIC "-//W3C//DTD SVG 1.1//EN" "http://www.w3.org/Graphics/SVG/1.1/DTD/svg11.dtd"><svg t="1612252073105" class="icon" viewBox="0 0 1024 1024" version="1.1" xmlns="http://www.w3.org/2000/svg" p-id="4414" data-spm-anchor-id="a313x.7781069.0.i4" xmlns:xlink="http://www.w3.org/1999/xlink" width="200" height="200"><defs><style type="text/css"></style></defs><path d="M648.544 745.824l273.056-273.056h-312.32l-116.736 117.088 156 156zM609.28 5.12L102.4 512l156 156L921.6 5.12z" fill="#42A5F5" opacity=".8" p-id="4415"></path><path d="M558.752 878.944l-44.384 44.704-21.856-21.856v0.352l116.736 116.736h312.32l-267.616-267.616 69.984 70.656z" fill="#0D47A1" p-id="4416" data-spm-anchor-id="a313x.7781069.0.i3"></path><path d="M336.736 746.112l155.904-155.936 155.936 155.904-155.904 155.936-155.936-155.904z" fill="#42A5F5" p-id="4417"></path><path d="M514.4 923.648l44.384-44.704-66.208 22.88z" fill="#0D47A1" p-id="4418"></path><path d="M514.4 923.648l44.384-44.704-66.208 22.88zM648.544 745.824zM492.544 901.792zM648.544 745.824v0.352zM648.544 745.824z" p-id="4419"></path><path d="M492.544 901.792z" fill="#0D47A1" p-id="4420"></path><path d="M492.544 901.792z" p-id="4421"></path><path d="M648.544 746.144l21.504 21.504-111.264 111.264 165.216-56.992-75.424-76.128z" fill="#0D47A1" p-id="4422"></path><path d="M648.544 746.144l21.504 21.504-111.264 111.264 165.216-56.992-75.424-76.128zM648.544 746.144l-156 155.648zM648.544 746.144l-156 155.648z" p-id="4423"></path><path d="M492.544 901.792l66.208-22.88 111.264-111.264-21.504-21.504-156 155.648z" fill="#0D47A1" p-id="4424"></path><path d="M492.544 901.792l66.208-22.88 111.264-111.264-21.504-21.504-156 155.648z" p-id="4425"></path><path d="M492.544 901.792l66.208-22.88 111.264-111.264-21.504-21.504-156 155.648z" p-id="4426"></path></svg>