<?xml version="1.0" standalone="no"?><!DOCTYPE svg PUBLIC "-//W3C//DTD SVG 1.1//EN" "http://www.w3.org/Graphics/SVG/1.1/DTD/svg11.dtd"><svg t="1612252089533" class="icon" viewBox="0 0 1024 1024" version="1.1" xmlns="http://www.w3.org/2000/svg" p-id="5189" xmlns:xlink="http://www.w3.org/1999/xlink" width="200" height="200"><defs><style type="text/css"></style></defs><path d="M511.7952 68.266667c-12.458667 0-24.917333 3.072-35.669333 9.216L137.898667 272.725333C116.053333 285.354667 102.4 309.248 102.4 334.506667v354.304c0 25.6 13.653333 49.152 35.498667 61.781333l88.746666 51.2c43.008 21.162667 58.368 21.162667 77.824 21.162667 63.829333 0 100.352-38.570667 100.352-105.472V351.914667c0-5.461333-4.437333-9.898667-9.898666-9.898667h-42.666667a9.762133 9.762133 0 0 0-9.898667 9.6256V717.141333c0 30.037333-31.061333 59.392-81.237333 34.474667l-92.842667-53.589333a10.356053 10.356053 0 0 1-5.461333-9.216V334.848c0-4.096 2.048-7.509333 5.461333-9.557333l338.261334-195.242667c3.242667-2.048 7.338667-2.048 10.581333 0l338.261333 195.242667c3.413333 2.048 5.461333 5.461333 5.461334 9.216v354.304c0 3.754667-2.048 7.509333-5.12 9.216l-338.602667 195.584c-3.310933 1.706667-7.2704 1.706667-10.581333 0l-87.04-51.541334c-2.389333-1.7408-5.563733-2.013867-8.192-0.682666-24.234667 13.653333-28.672 15.36-51.2 23.210666-5.461333 1.706667-13.994667 5.12 3.072 14.677334l112.981333 66.901333c10.922667 6.144 23.210667 9.557333 35.498667 9.557333 12.629333 0 24.917333-3.413333 35.84-9.557333l338.602666-195.584c21.845333-12.629333 35.498667-36.181333 35.498667-61.781333V334.848c0-25.6-13.653333-49.152-35.498667-61.781333l-338.602666-195.584c-10.786133-6.144-23.210667-9.216-35.703467-9.216z m90.999467 273.271466c-96.597333 0-154.282667 40.96-154.282667 109.226667 0 74.069333 57.344 94.481067 150.186667 103.697067 110.933333 10.922667 119.466667 27.374933 119.466666 49.220266 0 37.546667-30.378667 53.589333-101.717333 53.589334-89.770667 0-109.568-22.562133-116.053333-66.935467-0.682667-4.744533-4.778667-8.226133-9.557334-8.192h-44.032c-5.290667 0-9.557333 4.266667-9.557333 9.557333 0 57.002667 31.061333 124.928 179.2 124.928 107.178667 0 168.618667-42.325333 168.618667-116.053333 0-73.045333-49.493333-92.501333-153.258667-106.496-105.472-13.653333-116.053333-20.821333-116.053333-45.397333 0-20.48 9.216-47.445333 87.04-47.445334 69.290667 0 95.232 15.018667 105.813333 61.781334 1.024 4.437333 4.778667 7.850667 9.557333 7.850666h44.032c2.730667 0 5.12-1.365333 7.168-3.413333 1.877333-2.013867 2.7648-4.778667 2.389334-7.509333-6.826667-80.554667-60.416-118.442667-168.96-118.442667v0.034133z" fill="#539D43" p-id="5190"></path></svg>