<?xml version="1.0" standalone="no"?><!DOCTYPE svg PUBLIC "-//W3C//DTD SVG 1.1//EN" "http://www.w3.org/Graphics/SVG/1.1/DTD/svg11.dtd"><svg t="1612252031379" class="icon" viewBox="0 0 1149 1024" version="1.1" xmlns="http://www.w3.org/2000/svg" p-id="2876" xmlns:xlink="http://www.w3.org/1999/xlink" width="224.4140625" height="200"><defs><style type="text/css"></style></defs><path d="M945.324421 331.562425a770.198472 770.198472 0 0 0-37.007612-11.663685c2.088415-8.533309 4.010655-16.963319 5.717317-25.24512 28.0162-135.998484 9.701025-245.561675-52.85711-281.635115-59.980177-34.582356-158.072806 1.47761-257.140028 87.695466a769.030756 769.030756 0 0 0-28.631496 26.264626 700.027728 700.027728 0 0 0-19.047243-17.59209C452.530339 17.199827 348.459904-21.653675 285.969137 14.523063 226.042854 49.213208 208.298064 152.210243 233.520728 281.099133a767.881005 767.881005 0 0 0 8.497378 38.085504c-14.731185 4.185812-28.945881 8.641098-42.549771 13.383821C77.738442 375.01044 0 441.520844 0 510.510399c0 71.253127 83.455758 142.721832 210.24276 186.057566a653.561617 653.561617 0 0 0 31.083699 9.723481 752.130314 752.130314 0 0 0-9.027342 41.040723c-24.045965 126.652265-5.268195 227.215062 54.496404 261.685138 61.72726 35.597371 165.330609-0.988067 266.20779-89.173076a653.772704 653.772704 0 0 0 23.992071-22.110251 754.811569 754.811569 0 0 0 31.079209 28.357531c97.719857 84.084529 194.227087 118.038114 253.9333 83.473724 61.668874-35.700669 81.713167-143.732356 55.691067-275.167765a651.298044 651.298044 0 0 0-6.894016-30.728894c7.275768-2.155783 14.4168-4.374443 21.378184-6.682928 131.80818-43.668084 217.567932-114.269985 217.567932-186.475249 0-69.241063-80.249031-136.200588-204.426637-178.947974z m-28.586583 318.804411c-6.287701 2.079433-12.737086 4.087006-19.312225 6.040684-14.551537-46.066393-34.187129-95.047585-58.219621-145.659087 22.932144-49.403366 41.813212-97.760278 55.956048-143.52576 11.762492 3.404341 23.17467 6.992822 34.178147 10.778916 106.396885 36.63035 171.294943 90.78093 171.294943 132.50881 0 44.445064-70.089902 102.143704-183.897292 139.856437z m-47.220636 93.569975c11.506493 58.116323 13.145787 110.663539 5.524195 151.744683-6.844612 36.913297-20.614677 61.520664-37.645365 71.378881-36.230632 20.973974-113.717566-6.287701-197.285604-78.201036a703.890173 703.890173 0 0 1-28.909952-26.363433c32.399626-35.431196 64.776795-76.620129 96.376985-122.367646 55.583278-4.931354 108.094564-12.997576 155.714917-24.005544 2.344414 9.46299 4.428338 18.74184 6.224824 27.814095zM391.975286 963.435965c-35.399757 12.499052-63.595605 12.858349-80.639766 3.03157-36.266562-20.915589-51.343571-101.663144-30.778297-209.973287a704.774942 704.774942 0 0 1 8.394081-38.170837c47.094881 10.419619 99.224415 17.910966 154.937937 22.429128 31.815768 44.763941 65.12711 85.907962 98.698943 121.936489a604.822951 604.822951 0 0 1-21.903656 20.174538c-44.611239 38.992729-89.312303 66.658614-128.709242 80.572399zM226.132679 650.092872c-56.063838-19.164015-102.363774-44.067802-134.0987-71.244145-28.519216-24.418736-42.91356-48.666806-42.91356-68.338328 0-41.867107 62.414416-95.267654 166.51629-131.561163 12.633788-4.401391 25.855925-8.555765 39.576587-12.45414 14.389853 46.798461 33.261939 95.730249 56.036891 145.209966-23.071372 50.211784-42.21293 99.925044-56.742011 147.275924a605.047512 605.047512 0 0 1-28.375497-8.888114z m55.59226-378.429782c-21.607236-110.425505-7.257804-193.724071 28.856057-214.630677 38.462766-22.267444 123.517397 9.480955 213.166541 89.083251a648.163176 648.163176 0 0 1 17.250757 15.921357c-33.405658 35.871335-66.411597 76.709953-97.944419 121.208913-54.074229 5.012196-105.835483 13.060453-153.424398 23.843861a720.130407 720.130407 0 0 1-7.904538-35.422214z m495.951406 122.466453a1562.044601 1562.044601 0 0 0-34.964109-57.501027c36.684245 4.639425 71.832494 10.796881 104.838433 18.324158-9.90762 31.761873-22.258462 64.965426-36.796525 99.008836a1711.831115 1711.831115 0 0 0-33.077799-59.831967z m-202.248397-196.989185c22.653689 24.54449 45.343307 51.945393 67.660155 81.677238a1446.350901 1446.350901 0 0 0-135.890694-0.026948c22.339304-29.45788 45.222045-56.822853 68.230539-81.65029zM371.88159 394.466384a1451.4125 1451.4125 0 0 0-32.458011 59.454705c-14.300029-33.922147-26.53859-67.278402-36.531544-99.489396 32.803835-7.338645 67.785909-13.338909 104.236611-17.893001a1444.033434 1444.033434 0 0 0-35.247056 57.923201z m36.293509 293.509887c-37.658838-4.203777-73.166385-9.894147-105.961237-17.035179 10.150146-32.78587 22.65818-66.851736 37.268103-101.50146a1442.519894 1442.519894 0 0 0 32.592747 59.490634c11.650212 20.120644 23.713616 39.828095 36.100387 59.046005z m168.609196 139.362404c-23.282459-25.114875-46.502041-52.902022-69.178185-82.786568 22.015936 0.862313 44.458538 1.302452 67.269419 1.302453 23.43516 0 46.600848-0.525472 69.402746-1.540487-22.388707 30.423491-44.992993 58.251059-67.49398 83.024602z m234.432444-259.668582c15.368938 35.031478 28.321602 68.917695 38.606485 101.142163-33.333798 7.608118-69.326396 13.734136-107.250216 18.283737a1717.516993 1717.516993 0 0 0 35.29646-58.502568 1560.261589 1560.261589 0 0 0 33.347271-60.923332z m-75.892552 36.383333a1610.356602 1610.356602 0 0 1-55.156612 88.993427 1479.406244 1479.406244 0 0 1-105.292046 3.69627c-35.78151 0-70.583936-1.113821-104.097383-3.28757a1393.183897 1393.183897 0 0 1-56.198574-89.132654h0.004491a1380.644424 1380.644424 0 0 1-49.057542-92.640293 1393.525229 1393.525229 0 0 1 48.909332-92.685206l-0.004491 0.004492a1380.231233 1380.231233 0 0 1 55.749452-88.750901c34.19162-2.58694 69.254536-3.934304 104.690224-3.934305H574.875529c35.597371 0 70.705199 1.360838 104.887837 3.965743a1479.213122 1479.213122 0 0 1 55.399137 88.454481 1610.051199 1610.051199 0 0 1 49.56505 92.249557 1479.729611 1479.729611 0 0 1-49.403366 93.066959z m101.321812-548.485149c38.498696 22.204567 53.472407 111.745922 29.282722 229.16874-1.544978 7.491347-3.278587 15.121921-5.164897 22.860285-47.705686-11.012459-99.50287-19.199944-153.734292-24.288491-31.591207-44.988501-64.327673-85.889997-97.189894-121.298737a722.13798 722.13798 0 0 1 26.444275-24.252561c84.883965-73.867014 164.216788-103.032965 200.362086-82.189236zM574.875529 407.841222c56.70159 0 102.669176 45.967586 102.669176 102.669177s-45.967586 102.669176-102.669176 102.669176-102.669176-45.967586-102.669177-102.669176 45.967586-102.669176 102.669177-102.669177z" fill="#00D8FF" p-id="2877"></path></svg>