<?xml version="1.0" standalone="no"?><!DOCTYPE svg PUBLIC "-//W3C//DTD SVG 1.1//EN" "http://www.w3.org/Graphics/SVG/1.1/DTD/svg11.dtd"><svg t="1612258402748" class="icon" viewBox="0 0 1024 1024" version="1.1" xmlns="http://www.w3.org/2000/svg" p-id="2109" xmlns:xlink="http://www.w3.org/1999/xlink" width="200" height="200"><defs><style type="text/css"></style></defs><path d="M512 0c282.763636 0 512 229.236364 512 512s-229.236364 512-512 512S0 794.763636 0 512 229.236364 0 512 0z m-178.152727 679.796364c-79.569455-77.056 38.330182-135.051636 57.018182-144.360728 25.669818-25.646545 4.235636-77.847273-54.132364-61.533091-52.503273 19.874909-99.281455 80.430545-103.796364 129.908364-5.585455 109.056 95.906909 152.343273 95.906909 152.343273 152.087273 51.316364 224.418909-73.099636 224.418909-125.742546v-231.005091c31.557818-116.014545 136.704-79.057455 155.392-12.613818 11.636364 55.947636-76.544 96.488727-74.216727 113.989818-16.314182 59.438545 54.132364 53.76 54.132364 53.76 206.126545-167.400727 28.253091-271.150545 28.253091-271.150545-158.091636-88.436364-242.571636 60.509091-239.057455 119.272727 3.490909 58.740364 9.448727 205.544727-8.005818 247.133091-17.454545 41.588364-92.718545 73.146182-135.912727 30.021818z" fill="#28CF5E" p-id="2110"></path></svg>